  0
SECTION
  2
BLOCKS
  0
ENDSEC
  0
SECTION
  2
ENTITIES
  0
LINE
  8
0
 10
-75
 11
-75
 20
-40
 21
40
  0
LINE
  8
0
 10
-75
 11
-74.727
 20
40
 21
42.599
  0
LINE
  8
0
 10
-74.727
 11
-73.919
 20
42.599
 21
45.084
  0
LINE
  8
0
 10
-73.919
 11
-72.613
 20
45.084
 21
47.347
  0
LINE
  8
0
 10
-72.613
 11
-70.864
 20
47.347
 21
49.289
  0
LINE
  8
0
 10
-70.864
 11
-68.75
 20
49.289
 21
50.825
  0
LINE
  8
0
 10
-68.75
 11
-66.363
 20
50.825
 21
51.888
  0
LINE
  8
0
 10
-66.363
 11
-63.807
 20
51.888
 21
52.432
  0
LINE
  8
0
 10
-63.807
 11
-61.193
 20
52.432
 21
52.432
  0
LINE
  8
0
 10
-61.193
 11
-58.637
 20
52.432
 21
51.888
  0
LINE
  8
0
 10
-58.637
 11
-56.25
 20
51.888
 21
50.825
  0
LINE
  8
0
 10
-56.25
 11
-54.136
 20
50.825
 21
49.289
  0
LINE
  8
0
 10
-54.136
 11
-52.387
 20
49.289
 21
47.347
  0
LINE
  8
0
 10
-52.387
 11
-51.081
 20
47.347
 21
45.084
  0
LINE
  8
0
 10
-51.081
 11
-50.273
 20
45.084
 21
42.599
  0
LINE
  8
0
 10
-50.273
 11
-50
 20
42.599
 21
40
  0
LINE
  8
0
 10
-50
 11
-50
 20
40
 21
35
  0
LINE
  8
0
 10
-50
 11
50
 20
35
 21
35
  0
LINE
  8
0
 10
50
 11
50
 20
35
 21
40
  0
LINE
  8
0
 10
50
 11
50.273
 20
40
 21
42.599
  0
LINE
  8
0
 10
50.273
 11
51.081
 20
42.599
 21
45.084
  0
LINE
  8
0
 10
51.081
 11
52.387
 20
45.084
 21
47.347
  0
LINE
  8
0
 10
52.387
 11
54.136
 20
47.347
 21
49.289
  0
LINE
  8
0
 10
54.136
 11
56.25
 20
49.289
 21
50.825
  0
LINE
  8
0
 10
56.25
 11
58.637
 20
50.825
 21
51.888
  0
LINE
  8
0
 10
58.637
 11
61.193
 20
51.888
 21
52.432
  0
LINE
  8
0
 10
61.193
 11
63.807
 20
52.432
 21
52.432
  0
LINE
  8
0
 10
63.807
 11
66.363
 20
52.432
 21
51.888
  0
LINE
  8
0
 10
66.363
 11
68.75
 20
51.888
 21
50.825
  0
LINE
  8
0
 10
68.75
 11
70.864
 20
50.825
 21
49.289
  0
LINE
  8
0
 10
70.864
 11
72.613
 20
49.289
 21
47.347
  0
LINE
  8
0
 10
72.613
 11
73.919
 20
47.347
 21
45.084
  0
LINE
  8
0
 10
73.919
 11
74.727
 20
45.084
 21
42.599
  0
LINE
  8
0
 10
74.727
 11
75
 20
42.599
 21
40
  0
LINE
  8
0
 10
75
 11
75
 20
40
 21
-40
  0
LINE
  8
0
 10
75
 11
74.727
 20
-40
 21
-42.599
  0
LINE
  8
0
 10
74.727
 11
73.919
 20
-42.599
 21
-45.084
  0
LINE
  8
0
 10
73.919
 11
72.613
 20
-45.084
 21
-47.347
  0
LINE
  8
0
 10
72.613
 11
70.864
 20
-47.347
 21
-49.289
  0
LINE
  8
0
 10
70.864
 11
68.75
 20
-49.289
 21
-50.825
  0
LINE
  8
0
 10
68.75
 11
66.363
 20
-50.825
 21
-51.888
  0
LINE
  8
0
 10
66.363
 11
63.807
 20
-51.888
 21
-52.432
  0
LINE
  8
0
 10
63.807
 11
61.193
 20
-52.432
 21
-52.432
  0
LINE
  8
0
 10
61.193
 11
58.637
 20
-52.432
 21
-51.888
  0
LINE
  8
0
 10
58.637
 11
56.25
 20
-51.888
 21
-50.825
  0
LINE
  8
0
 10
56.25
 11
54.136
 20
-50.825
 21
-49.289
  0
LINE
  8
0
 10
54.136
 11
52.387
 20
-49.289
 21
-47.347
  0
LINE
  8
0
 10
52.387
 11
51.081
 20
-47.347
 21
-45.084
  0
LINE
  8
0
 10
51.081
 11
50.273
 20
-45.084
 21
-42.599
  0
LINE
  8
0
 10
50.273
 11
50
 20
-42.599
 21
-40
  0
LINE
  8
0
 10
50
 11
50
 20
-40
 21
-35
  0
LINE
  8
0
 10
50
 11
-50
 20
-35
 21
-35
  0
LINE
  8
0
 10
-50
 11
-50
 20
-35
 21
-40
  0
LINE
  8
0
 10
-50
 11
-50.273
 20
-40
 21
-42.599
  0
LINE
  8
0
 10
-50.273
 11
-51.081
 20
-42.599
 21
-45.084
  0
LINE
  8
0
 10
-51.081
 11
-52.387
 20
-45.084
 21
-47.347
  0
LINE
  8
0
 10
-52.387
 11
-54.136
 20
-47.347
 21
-49.289
  0
LINE
  8
0
 10
-54.136
 11
-56.25
 20
-49.289
 21
-50.825
  0
LINE
  8
0
 10
-56.25
 11
-58.637
 20
-50.825
 21
-51.888
  0
LINE
  8
0
 10
-58.637
 11
-61.193
 20
-51.888
 21
-52.432
  0
LINE
  8
0
 10
-61.193
 11
-63.807
 20
-52.432
 21
-52.432
  0
LINE
  8
0
 10
-63.807
 11
-66.363
 20
-52.432
 21
-51.888
  0
LINE
  8
0
 10
-66.363
 11
-68.75
 20
-51.888
 21
-50.825
  0
LINE
  8
0
 10
-68.75
 11
-70.864
 20
-50.825
 21
-49.289
  0
LINE
  8
0
 10
-70.864
 11
-72.613
 20
-49.289
 21
-47.347
  0
LINE
  8
0
 10
-72.613
 11
-73.919
 20
-47.347
 21
-45.084
  0
LINE
  8
0
 10
-73.919
 11
-74.727
 20
-45.084
 21
-42.599
  0
LINE
  8
0
 10
-74.727
 11
-75
 20
-42.599
 21
-40
  0
LINE
  8
0
 10
-70.384
 11
-70.384
 20
-32.957
 21
-31.043
  0
LINE
  8
0
 10
-70.384
 11
-69.494
 20
-31.043
 21
-29.348
  0
LINE
  8
0
 10
-69.494
 11
-67.918
 20
-29.348
 21
-28.26
  0
LINE
  8
0
 10
-67.918
 11
-66.018
 20
-28.26
 21
-28.029
  0
LINE
  8
0
 10
-66.018
 11
-64.228
 20
-28.029
 21
-28.708
  0
LINE
  8
0
 10
-64.228
 11
-62.958
 20
-28.708
 21
-30.141
  0
LINE
  8
0
 10
-62.958
 11
-62.5
 20
-30.141
 21
-32
  0
LINE
  8
0
 10
-62.5
 11
-62.958
 20
-32
 21
-33.859
  0
LINE
  8
0
 10
-62.958
 11
-64.228
 20
-33.859
 21
-35.292
  0
LINE
  8
0
 10
-64.228
 11
-66.018
 20
-35.292
 21
-35.971
  0
LINE
  8
0
 10
-66.018
 11
-67.918
 20
-35.971
 21
-35.74
  0
LINE
  8
0
 10
-67.918
 11
-69.494
 20
-35.74
 21
-34.652
  0
LINE
  8
0
 10
-69.494
 11
-70.384
 20
-34.652
 21
-32.957
  0
LINE
  8
0
 10
-70.384
 11
-70.384
 20
-16.957
 21
-15.043
  0
LINE
  8
0
 10
-70.384
 11
-69.494
 20
-15.043
 21
-13.348
  0
LINE
  8
0
 10
-69.494
 11
-67.918
 20
-13.348
 21
-12.26
  0
LINE
  8
0
 10
-67.918
 11
-66.018
 20
-12.26
 21
-12.029
  0
LINE
  8
0
 10
-66.018
 11
-64.228
 20
-12.029
 21
-12.708
  0
LINE
  8
0
 10
-64.228
 11
-62.958
 20
-12.708
 21
-14.141
  0
LINE
  8
0
 10
-62.958
 11
-62.5
 20
-14.141
 21
-16
  0
LINE
  8
0
 10
-62.5
 11
-62.958
 20
-16
 21
-17.859
  0
LINE
  8
0
 10
-62.958
 11
-64.228
 20
-17.859
 21
-19.292
  0
LINE
  8
0
 10
-64.228
 11
-66.018
 20
-19.292
 21
-19.971
  0
LINE
  8
0
 10
-66.018
 11
-67.918
 20
-19.971
 21
-19.74
  0
LINE
  8
0
 10
-67.918
 11
-69.494
 20
-19.74
 21
-18.652
  0
LINE
  8
0
 10
-69.494
 11
-70.384
 20
-18.652
 21
-16.957
  0
LINE
  8
0
 10
-70.384
 11
-70.384
 20
-0.957
 21
0.957
  0
LINE
  8
0
 10
-70.384
 11
-69.494
 20
0.957
 21
2.652
  0
LINE
  8
0
 10
-69.494
 11
-67.918
 20
2.652
 21
3.74
  0
LINE
  8
0
 10
-67.918
 11
-66.018
 20
3.74
 21
3.971
  0
LINE
  8
0
 10
-66.018
 11
-64.228
 20
3.971
 21
3.292
  0
LINE
  8
0
 10
-64.228
 11
-62.958
 20
3.292
 21
1.859
  0
LINE
  8
0
 10
-62.958
 11
-62.5
 20
1.859
 21
0
  0
LINE
  8
0
 10
-62.5
 11
-62.958
 20
0
 21
-1.859
  0
LINE
  8
0
 10
-62.958
 11
-64.228
 20
-1.859
 21
-3.292
  0
LINE
  8
0
 10
-64.228
 11
-66.018
 20
-3.292
 21
-3.971
  0
LINE
  8
0
 10
-66.018
 11
-67.918
 20
-3.971
 21
-3.74
  0
LINE
  8
0
 10
-67.918
 11
-69.494
 20
-3.74
 21
-2.652
  0
LINE
  8
0
 10
-69.494
 11
-70.384
 20
-2.652
 21
-0.957
  0
LINE
  8
0
 10
-70.384
 11
-70.384
 20
15.043
 21
16.957
  0
LINE
  8
0
 10
-70.384
 11
-69.494
 20
16.957
 21
18.652
  0
LINE
  8
0
 10
-69.494
 11
-67.918
 20
18.652
 21
19.74
  0
LINE
  8
0
 10
-67.918
 11
-66.018
 20
19.74
 21
19.971
  0
LINE
  8
0
 10
-66.018
 11
-64.228
 20
19.971
 21
19.292
  0
LINE
  8
0
 10
-64.228
 11
-62.958
 20
19.292
 21
17.859
  0
LINE
  8
0
 10
-62.958
 11
-62.5
 20
17.859
 21
16
  0
LINE
  8
0
 10
-62.5
 11
-62.958
 20
16
 21
14.141
  0
LINE
  8
0
 10
-62.958
 11
-64.228
 20
14.141
 21
12.708
  0
LINE
  8
0
 10
-64.228
 11
-66.018
 20
12.708
 21
12.029
  0
LINE
  8
0
 10
-66.018
 11
-67.918
 20
12.029
 21
12.26
  0
LINE
  8
0
 10
-67.918
 11
-69.494
 20
12.26
 21
13.348
  0
LINE
  8
0
 10
-69.494
 11
-70.384
 20
13.348
 21
15.043
  0
LINE
  8
0
 10
-70.384
 11
-70.384
 20
31.043
 21
32.957
  0
LINE
  8
0
 10
-70.384
 11
-69.494
 20
32.957
 21
34.652
  0
LINE
  8
0
 10
-69.494
 11
-67.918
 20
34.652
 21
35.74
  0
LINE
  8
0
 10
-67.918
 11
-66.018
 20
35.74
 21
35.971
  0
LINE
  8
0
 10
-66.018
 11
-64.228
 20
35.971
 21
35.292
  0
LINE
  8
0
 10
-64.228
 11
-62.958
 20
35.292
 21
33.859
  0
LINE
  8
0
 10
-62.958
 11
-62.5
 20
33.859
 21
32
  0
LINE
  8
0
 10
-62.5
 11
-62.958
 20
32
 21
30.141
  0
LINE
  8
0
 10
-62.958
 11
-64.228
 20
30.141
 21
28.708
  0
LINE
  8
0
 10
-64.228
 11
-66.018
 20
28.708
 21
28.029
  0
LINE
  8
0
 10
-66.018
 11
-67.918
 20
28.029
 21
28.26
  0
LINE
  8
0
 10
-67.918
 11
-69.494
 20
28.26
 21
29.348
  0
LINE
  8
0
 10
-69.494
 11
-70.384
 20
29.348
 21
31.043
  0
LINE
  8
0
 10
49.191
 11
49.191
 20
-0.588
 21
0.588
  0
LINE
  8
0
 10
49.191
 11
50.309
 20
0.588
 21
0.951
  0
LINE
  8
0
 10
50.309
 11
51
 20
0.951
 21
0
  0
LINE
  8
0
 10
51
 11
50.309
 20
0
 21
-0.951
  0
LINE
  8
0
 10
50.309
 11
49.191
 20
-0.951
 21
-0.588
  0
LINE
  8
0
 10
62.616
 11
62.616
 20
-32.957
 21
-31.043
  0
LINE
  8
0
 10
62.616
 11
63.506
 20
-31.043
 21
-29.348
  0
LINE
  8
0
 10
63.506
 11
65.082
 20
-29.348
 21
-28.26
  0
LINE
  8
0
 10
65.082
 11
66.982
 20
-28.26
 21
-28.029
  0
LINE
  8
0
 10
66.982
 11
68.772
 20
-28.029
 21
-28.708
  0
LINE
  8
0
 10
68.772
 11
70.042
 20
-28.708
 21
-30.141
  0
LINE
  8
0
 10
70.042
 11
70.5
 20
-30.141
 21
-32
  0
LINE
  8
0
 10
70.5
 11
70.042
 20
-32
 21
-33.859
  0
LINE
  8
0
 10
70.042
 11
68.772
 20
-33.859
 21
-35.292
  0
LINE
  8
0
 10
68.772
 11
66.982
 20
-35.292
 21
-35.971
  0
LINE
  8
0
 10
66.982
 11
65.082
 20
-35.971
 21
-35.74
  0
LINE
  8
0
 10
65.082
 11
63.506
 20
-35.74
 21
-34.652
  0
LINE
  8
0
 10
63.506
 11
62.616
 20
-34.652
 21
-32.957
  0
LINE
  8
0
 10
62.616
 11
62.616
 20
-16.957
 21
-15.043
  0
LINE
  8
0
 10
62.616
 11
63.506
 20
-15.043
 21
-13.348
  0
LINE
  8
0
 10
63.506
 11
65.082
 20
-13.348
 21
-12.26
  0
LINE
  8
0
 10
65.082
 11
66.982
 20
-12.26
 21
-12.029
  0
LINE
  8
0
 10
66.982
 11
68.772
 20
-12.029
 21
-12.708
  0
LINE
  8
0
 10
68.772
 11
70.042
 20
-12.708
 21
-14.141
  0
LINE
  8
0
 10
70.042
 11
70.5
 20
-14.141
 21
-16
  0
LINE
  8
0
 10
70.5
 11
70.042
 20
-16
 21
-17.859
  0
LINE
  8
0
 10
70.042
 11
68.772
 20
-17.859
 21
-19.292
  0
LINE
  8
0
 10
68.772
 11
66.982
 20
-19.292
 21
-19.971
  0
LINE
  8
0
 10
66.982
 11
65.082
 20
-19.971
 21
-19.74
  0
LINE
  8
0
 10
65.082
 11
63.506
 20
-19.74
 21
-18.652
  0
LINE
  8
0
 10
63.506
 11
62.616
 20
-18.652
 21
-16.957
  0
LINE
  8
0
 10
62.616
 11
62.616
 20
-0.957
 21
0.957
  0
LINE
  8
0
 10
62.616
 11
63.506
 20
0.957
 21
2.652
  0
LINE
  8
0
 10
63.506
 11
65.082
 20
2.652
 21
3.74
  0
LINE
  8
0
 10
65.082
 11
66.982
 20
3.74
 21
3.971
  0
LINE
  8
0
 10
66.982
 11
68.772
 20
3.971
 21
3.292
  0
LINE
  8
0
 10
68.772
 11
70.042
 20
3.292
 21
1.859
  0
LINE
  8
0
 10
70.042
 11
70.5
 20
1.859
 21
0
  0
LINE
  8
0
 10
70.5
 11
70.042
 20
0
 21
-1.859
  0
LINE
  8
0
 10
70.042
 11
68.772
 20
-1.859
 21
-3.292
  0
LINE
  8
0
 10
68.772
 11
66.982
 20
-3.292
 21
-3.971
  0
LINE
  8
0
 10
66.982
 11
65.082
 20
-3.971
 21
-3.74
  0
LINE
  8
0
 10
65.082
 11
63.506
 20
-3.74
 21
-2.652
  0
LINE
  8
0
 10
63.506
 11
62.616
 20
-2.652
 21
-0.957
  0
LINE
  8
0
 10
62.616
 11
62.616
 20
15.043
 21
16.957
  0
LINE
  8
0
 10
62.616
 11
63.506
 20
16.957
 21
18.652
  0
LINE
  8
0
 10
63.506
 11
65.082
 20
18.652
 21
19.74
  0
LINE
  8
0
 10
65.082
 11
66.982
 20
19.74
 21
19.971
  0
LINE
  8
0
 10
66.982
 11
68.772
 20
19.971
 21
19.292
  0
LINE
  8
0
 10
68.772
 11
70.042
 20
19.292
 21
17.859
  0
LINE
  8
0
 10
70.042
 11
70.5
 20
17.859
 21
16
  0
LINE
  8
0
 10
70.5
 11
70.042
 20
16
 21
14.141
  0
LINE
  8
0
 10
70.042
 11
68.772
 20
14.141
 21
12.708
  0
LINE
  8
0
 10
68.772
 11
66.982
 20
12.708
 21
12.029
  0
LINE
  8
0
 10
66.982
 11
65.082
 20
12.029
 21
12.26
  0
LINE
  8
0
 10
65.082
 11
63.506
 20
12.26
 21
13.348
  0
LINE
  8
0
 10
63.506
 11
62.616
 20
13.348
 21
15.043
  0
LINE
  8
0
 10
62.616
 11
62.616
 20
31.043
 21
32.957
  0
LINE
  8
0
 10
62.616
 11
63.506
 20
32.957
 21
34.652
  0
LINE
  8
0
 10
63.506
 11
65.082
 20
34.652
 21
35.74
  0
LINE
  8
0
 10
65.082
 11
66.982
 20
35.74
 21
35.971
  0
LINE
  8
0
 10
66.982
 11
68.772
 20
35.971
 21
35.292
  0
LINE
  8
0
 10
68.772
 11
70.042
 20
35.292
 21
33.859
  0
LINE
  8
0
 10
70.042
 11
70.5
 20
33.859
 21
32
  0
LINE
  8
0
 10
70.5
 11
70.042
 20
32
 21
30.141
  0
LINE
  8
0
 10
70.042
 11
68.772
 20
30.141
 21
28.708
  0
LINE
  8
0
 10
68.772
 11
66.982
 20
28.708
 21
28.029
  0
LINE
  8
0
 10
66.982
 11
65.082
 20
28.029
 21
28.26
  0
LINE
  8
0
 10
65.082
 11
63.506
 20
28.26
 21
29.348
  0
LINE
  8
0
 10
63.506
 11
62.616
 20
29.348
 21
31.043
  0
ENDSEC
  0
SECTION
  2
OBJECTS
  0
DICTIONARY
  0
ENDSEC
  0
EOF
